HIERARCHY
ROOT ui
{
	 OFFSET 0 0 0
	 CHANNELS 3 XPosition YPosition Z Position
	 EndSite
	 {
	 OFFSET 0 -1 0
	 }
}
ROOT li
{
	 OFFSET 0 0 0
	 CHANNELS 3 XPosition YPosition Z Position
	 EndSite
	 {
	 OFFSET 0 -1 0
	 }
}
ROOT ul
{
	 OFFSET 0 0 0
	 CHANNELS 3 XPosition YPosition Z Position
	 EndSite
	 {
	 OFFSET 0 -1 0
	 }
}
ROOT ll
{
	 OFFSET 0 0 0
	 CHANNELS 3 XPosition YPosition Z Position
	 EndSite
	 {
	 OFFSET 0 -1 0
	 }
}
ROOT tt
{
	 OFFSET 0 0 0
	 CHANNELS 3 XPosition YPosition Z Position
	 EndSite
	 {
	 OFFSET 0 -1 0
	 }
}
ROOT tb
{
	 OFFSET 0 0 0
	 CHANNELS 3 XPosition YPosition Z Position
	 EndSite
	 {
	 OFFSET 0 -1 0
	 }
}
ROOT td
{
	 OFFSET 0 0 0
	 CHANNELS 3 XPosition YPosition Z Position
	 EndSite
	 {
	 OFFSET 0 -1 0
	 }
}
ROOT v
{
	 OFFSET 0 0 0
	 CHANNELS 3 XPosition YPosition Z Position
	 EndSite
	 {
	 OFFSET 0 -1 0
	 }
}
ROOT bn
{
	 OFFSET 0 0 0
	 CHANNELS 3 XPosition YPosition Z Position
	 EndSite
	 {
	 OFFSET 0 -1 0
	 }
}
MOTION
Frames: 21
Frame Time: 0.002
-0.002667464017868042	-0.0034935019016265867	0		0.55551806640625	-2.479641845703125	0		-1.07116015625	0.36485067749023437	0		-0.5599069213867187	-2.8277685546875	0		1.3459208984375	-0.8473651733398437	0		2.869784912109375	-0.38631982421875	0		4.3821328125	0.1938782958984375	0		5.97212841796875	0.639027099609375	0		-0.38313113403320315	5.8997060546875	0		
-0.007780500888824463	0.0019081859588623046	0		0.5520639038085937	-2.48331591796875	0		-1.0713023681640625	0.36528836059570313	0		-0.60139013671875	-2.83086279296875	0		1.3933870849609375	-0.8697508544921875	0		2.87964794921875	-0.3803709411621094	0		4.36765380859375	0.24799801635742189	0		5.97619091796875	0.6194918212890625	0		-0.38177655029296875	5.89906787109375	0		
-0.007979595184326171	0.002256047010421753	0		0.5574549560546875	-2.49709521484375	0		-1.0705814208984374	0.35672369384765623	0		-0.5651351928710937	-2.85292578125	0		1.3908916015625	-0.88650732421875	0		2.899322998046875	-0.38754534912109373	0		4.37272998046875	0.2678721008300781	0		5.9682275390625	0.6228140258789062	0		-0.40234689331054685	5.9057158203125	0		
-0.006297247886657715	-0.005415986061096192	0		0.5399303588867187	-2.502578369140625	0		-1.135771240234375	0.3570042419433594	0		-0.5917306518554688	-2.861188720703125	0		1.3934652099609375	-0.8963228759765625	0		2.883339599609375	-0.3662626037597656	0		4.36412646484375	0.3139256591796875	0		5.9759072265625	0.6187422485351562	0		-0.3518226623535156	5.92046728515625	0		
0.016579059600830077	0.0026426029205322264	0		0.5914065551757812	-2.507941162109375	0		-1.05591748046875	0.36043606567382813	0		-0.5742333984375	-2.862010986328125	0		1.40886181640625	-0.9193013305664063	0		2.901862060546875	-0.38341775512695314	0		4.360380859375	0.34892453002929685	0		5.98512646484375	0.6371262817382812	0		-0.35149932861328126	5.92085400390625	0		
-0.0037072720527648925	-0.0017473089694976806	0		0.5619339599609375	-2.509266845703125	0		-1.061159912109375	0.35694866943359377	0		-0.5359631958007812	-2.881109130859375	0		1.4273214111328125	-0.9373193969726562	0		2.89975927734375	-0.37130117797851564	0		4.348525390625	0.37503799438476565	0		5.98497412109375	0.6367927856445312	0		-0.31712869262695315	5.92579833984375	0		
0.021074583053588867	-0.0017234359979629516	0		0.6182495727539062	-2.52870654296875	0		-1.0613450927734376	0.3573890380859375	0		-0.5435311889648438	-2.888622314453125	0		1.4248035888671875	-0.9540662841796875	0		2.90135498046875	-0.38322763061523435	0		4.34987548828125	0.41599502563476565	0		5.991958984375	0.6362655639648438	0		-0.3508953247070313	5.9216171875	0		
-0.012099005699157716	0.001049025058746338	0		0.5628580932617188	-2.526694580078125	0		-1.055584228515625	0.35274005126953123	0		-0.518142333984375	-2.90157470703125	0		1.4952420654296874	-0.9757681884765625	0		2.886135498046875	-0.3819263000488281	0		4.33804833984375	0.442136474609375	0		5.99182080078125	0.635998291015625	0		-0.3847022399902344	5.91543408203125	0		
0.017647743225097656	-0.0040111360549926756	0		0.6331709594726562	-2.550337158203125	0		-1.0457562255859374	0.352022705078125	0		-0.5687686767578125	-2.917541748046875	0		1.4727474365234374	-0.9932577514648437	0		2.9237470703125	-0.395312744140625	0		4.32624072265625	0.4682940063476563	0		5.995861328125	0.6148766479492187	0		-0.33325479125976565	5.9291240234375	0		
-0.00447523307800293	-3.98732990026474E-4	0		0.5829373168945312	-2.54139794921875	0		-1.0367906494140624	0.3602991333007812	0		-0.5032500915527344	-2.926052001953125	0		1.519389892578125	-1.0026602172851562	0		2.913966064453125	-0.3640662841796875	0		4.3317177734375	0.5142418212890625	0		5.99800146484375	0.6353836669921875	0		-0.33300164794921877	5.92947021484375	0		
0.015447495460510254	0.004645104885101318	0		0.62845654296875	-2.554735595703125	0		-1.0519482421875	0.35787496948242187	0		-0.5137237548828125	-2.936575927734375	0		1.5179580078125	-1.0194320678710938	0		2.918481201171875	-0.388006103515625	0		4.32296826171875	0.5413934936523438	0		5.99373974609375	0.6561463623046875	0		-0.33373953247070315	5.931814453125	0		
-0.007776247978210449	-0.002752129077911377	0		0.6251401977539063	-2.55843505859375	0		-1.0461146240234376	0.3531502685546875	0		-0.4793322448730469	-2.960716796875	0		1.5347264404296874	-1.02344873046875	0		2.918340087890625	-0.3878749694824219	0		4.3103349609375	0.5756160278320313	0		5.99572314453125	0.642156982421875	0		-0.3486698913574219	5.921330078125	0		
0.017124204635620116	-0.0028074800968170164	0		0.6188250732421875	-2.56510498046875	0		-1.050247802734375	0.34953466796875	0		-0.5077454223632812	-2.973037353515625	0		1.525177978515625	-1.05312060546875	0		2.96207275390625	-0.3993266296386719	0		4.303521484375	0.5947776489257812	0		5.99565771484375	0.6421280517578125	0		-0.36642333984375	5.92586767578125	0		
-0.007950687885284424	-0.002210442066192627	0		0.6383997802734375	-2.583135986328125	0		-1.0462572021484375	0.35378475952148436	0		-0.4790671081542969	-2.982144287109375	0		1.5519481201171874	-1.0612835693359375	0		2.954235595703125	-0.3800797424316406	0		4.3036435546875	0.6078629150390625	0		6.003767578125	0.6989813842773438	0		-0.33219509887695314	5.9306865234375	0		
0.016987031936645507	-0.002304708003997803	0		0.6382564086914062	-2.5829140625	0		-1.11623193359375	0.36000421142578126	0		-0.49143792724609375	-2.99772314453125	0		1.5697578125	-1.0683331298828125	0		2.94089501953125	-0.399755615234375	0		4.30295361328125	0.6339775390625	0		6.0018095703125	0.7389169311523438	0		-0.33206350708007815	5.930939453125	0		
-0.005017555236816406	0.001214534044265747	0		0.6340947875976563	-2.58665185546875	0		-1.0463443603515625	0.3543085632324219	0		-0.4776109619140625	-3.001677490234375	0		1.5704964599609375	-1.0821595458984374	0		2.969822265625	-0.40099365234375	0		4.3060966796875	0.6470571899414063	0		6.0097490234375	0.7612849731445313	0		-0.331970703125	5.93117041015625	0		
-0.008097122192382813	-0.0015416200160980225	0		0.6309501953125	-2.591417236328125	0		-1.0463785400390626	0.35452685546875	0		-0.471897705078125	-3.01654736328125	0		1.59427685546875	-1.0943031005859376	0		2.960683349609375	-0.4077120361328125	0		4.301337890625	0.6672626342773438	0		6.01127490234375	0.7839222412109375	0		-0.3319228515625	5.9313779296875	0		
-0.008133661270141602	-0.0013585809469223021	0		0.671556884765625	-2.6167900390625	0		-1.0464129638671875	0.35471588134765625	0		-0.4461162109375	-3.028712158203125	0		1.5911937255859374	-1.09708837890625	0		2.975629638671875	-0.4087488098144531	0		4.3053857421875	0.6733662719726563	0		6.01209765625	0.8083724975585938	0		-0.36598983764648435	5.9270234375	0		
-0.008170937538146973	-0.0011954180002212524	0		0.6465708618164062	-2.613286865234375	0		-1.1095673828125	0.34672836303710936	0		-0.4712632141113281	-3.03721142578125	0		1.607009765625	-1.108135498046875	0		2.965378173828125	-0.4244394226074219	0		4.28861865234375	0.6937713012695312	0		6.024908203125	0.8082676391601562	0		-0.3300088195800781	5.9296982421875	0		
-0.005170287132263184	0.0019074690341949463	0		0.6735469970703125	-2.6145	0		-1.0265106201171874	0.3537366943359375	0		-0.45940213012695313	-3.047234619140625	0		1.6090374755859376	-1.10399951171875	0		2.981693603515625	-0.3984781494140625	0		4.30564990234375	0.6997369384765625	0		6.02366357421875	0.8467482299804687	0		-0.3301204528808594	5.929837890625	0		
-0.00825218963623047	-9.270049929618836E-4	0		0.6425091552734375	-2.6179423828125	0		-1.04654443359375	0.3551097106933594	0		-0.4345439147949219	-3.05945556640625	0		1.6428809814453125	-1.1142984619140626	0		2.956352294921875	-0.42095132446289063	0		4.3016884765625	0.707005615234375	0		6.02812158203125	0.885103271484375	0		-0.3322595520019531	5.93198291015625	0		
